<svg xmlns="http://www.w3.org/2000/svg" viewBox="0 0 1024 1024"><path d="M481.642326 861.922741c0-30.772669 12.011871-59.725358 33.834637-81.528124 21.817766-21.802766 50.790454-33.809637 81.579123-33.809637 30.793669 0 59.766358 12.006871 81.590124 33.809637l31.61966 31.59866L811.293785 711.032362a430.568375 430.568375 0 0 0-20.904776-22.612757c-37.2146-37.189601-80.600134-66.418287-128.990614-86.893067-5.784938-2.466973-12.231869-5.010946-20.268782-7.990914l-55.186407-20.47978 49.754465-31.444662c18.863797-11.919872 36.178611-25.761723 51.509447-41.179558 55.391405-55.355405 85.898077-128.974615 85.898077-207.292773 0-78.328159-30.506672-151.942368-85.898077-207.297773C631.809713 30.490672 558.144504 0 479.775346 0 401.401188 0 327.735979 30.490672 272.344574 85.841078c-55.386405 55.360405-85.898077 128.974615-85.898077 207.297773 0 78.317159 30.511672 151.936368 85.898077 207.292773 17.991807 17.971807 38.15859 33.53264 59.951356 46.231504l51.591446 30.080677-55.478404 22.135762c-2.328975 0.92799-4.123956 1.645982-5.969936 2.476973l-0.466995 0.199998c-48.323481 20.44878-91.699015 49.672466-128.903615 86.862067-37.2196 37.1996-66.464286 80.538135-86.929066 128.831616C85.008587 867.066686 74.294702 920.161115 74.294702 975.054526c0 4.497952 3.661961 8.154912 8.159912 8.154912h472.90992l-39.892571-39.758573c-21.817766-21.807766-33.829637-50.755455-33.829637-81.528124zM935.360452 750.231941c-9.252901-9.246901-21.561768-14.339846-34.650628-14.339846-13.093859 0-25.402727 5.092945-34.650627 14.339846L710.383869 905.79527l-78.620156-78.553156c-9.246901-9.246901-21.551768-14.339846-34.645627-14.339846-13.088859 0-25.397727 5.092945-34.650628 14.339846-9.246901 9.241901-14.345846 21.540769-14.345846 34.629628 0 13.083859 5.097945 25.377727 14.345846 34.619628l113.141784 113.070785c9.159902 9.3039 21.469769 14.427845 34.655628 14.427845 13.114859 0 25.443727-5.102945 34.706627-14.360846l190.387955-190.146957c9.246901-9.246901 14.345846-21.546769 14.345846-34.629628 0-13.084859-5.097945-25.378727-14.344846-34.620628z" fill="currentColor"/></svg>
